<mxfile>
    <diagram id="XwklXfNZwkOFuMsSnyTB" name="Page-1">
        <mxGraphModel dx="1659" dy="1068" grid="1" gridSize="10" guides="1" tooltips="1" connect="1" arrows="1" fold="1" page="1" pageScale="1" pageWidth="850" pageHeight="1100" math="0" shadow="0">
            <root>
                <mxCell id="0"/>
                <mxCell id="1" parent="0"/>
                <mxCell id="105" value="" style="rounded=0;whiteSpace=wrap;html=1;dashed=1;align=left;strokeColor=none;fillColor=#CCCCCC;" vertex="1" parent="1">
                    <mxGeometry x="560" y="846.05" width="340" height="50" as="geometry"/>
                </mxCell>
                <mxCell id="32" value="" style="rounded=0;whiteSpace=wrap;html=1;align=center;strokeColor=none;fillColor=#E6E6E6;" vertex="1" parent="1">
                    <mxGeometry x="560" y="1100" width="500" height="80" as="geometry"/>
                </mxCell>
                <mxCell id="29" value="" style="rounded=0;whiteSpace=wrap;html=1;align=center;strokeColor=none;fillColor=#E6E6E6;" vertex="1" parent="1">
                    <mxGeometry x="560" y="1540" width="500" height="90" as="geometry"/>
                </mxCell>
                <mxCell id="2" value="&lt;font color=&quot;#666666&quot;&gt;&lt;i&gt;Ordered multiple value groups with additional&amp;nbsp;properties&lt;/i&gt;&lt;/font&gt;&lt;br&gt;{&lt;br&gt;&amp;nbsp; &quot;schema:image&quot;: [{ &quot;@list&quot;: [&lt;br&gt;&amp;nbsp; {&lt;br&gt;&amp;nbsp; &amp;nbsp; &quot;@type&quot;: &quot;ImageObject&quot;,&lt;br&gt;&amp;nbsp; &amp;nbsp; &lt;font color=&quot;#0000ff&quot;&gt;&quot;schema:url&quot;&lt;/font&gt;: &lt;font color=&quot;#009900&quot;&gt;&quot;http://example.com/image.jpg&quot;&lt;/font&gt;,&lt;br&gt;&lt;font color=&quot;#ff8000&quot;&gt;&amp;nbsp; &amp;nbsp; &quot;schema:width&quot;: 100,&lt;br&gt;&amp;nbsp; &amp;nbsp; &quot;schema:height&quot;: 100,&lt;/font&gt;&lt;br&gt;&amp;nbsp; },&lt;br&gt;&amp;nbsp; {&lt;br&gt;&amp;nbsp; &amp;nbsp; &quot;@type&quot;: &quot;ImageObject&quot;,&lt;br&gt;&amp;nbsp; &amp;nbsp; &lt;font color=&quot;#0000ff&quot;&gt;&quot;schema:url&quot;&lt;/font&gt;: &lt;font color=&quot;#009900&quot;&gt;&quot;http://example.com/image2.jpg&quot;&lt;/font&gt;,&lt;br&gt;&amp;nbsp; &amp;nbsp; &lt;font color=&quot;#ff8000&quot;&gt;&quot;schema:width&quot;: 100,&lt;br&gt;&amp;nbsp; &amp;nbsp; &quot;schema:height&quot;: 100,&lt;/font&gt;&lt;br&gt;&amp;nbsp; }&lt;br&gt;] }]&lt;br&gt;}" style="text;html=1;strokeColor=none;fillColor=none;align=left;verticalAlign=top;whiteSpace=wrap;rounded=0;" vertex="1" parent="1">
                    <mxGeometry x="40" y="860" width="380" height="240" as="geometry"/>
                </mxCell>
                <mxCell id="3" value="&lt;i&gt;&lt;font color=&quot;#666666&quot;&gt;Single value collapsed&lt;/font&gt;&lt;br&gt;&lt;/i&gt;{ &lt;font color=&quot;#0000ff&quot;&gt;&quot;schema:image&quot;&lt;/font&gt;: &lt;font color=&quot;#009900&quot;&gt;&quot;http://example.com/image.jpg&quot;&lt;/font&gt; }" style="text;html=1;strokeColor=none;fillColor=none;align=left;verticalAlign=top;whiteSpace=wrap;rounded=0;" vertex="1" parent="1">
                    <mxGeometry x="40" y="700" width="330" height="40" as="geometry"/>
                </mxCell>
                <mxCell id="4" value="&lt;i&gt;&lt;font color=&quot;#666666&quot;&gt;Unordered multiple value&lt;br&gt;&lt;/font&gt;&lt;/i&gt;{ &lt;font color=&quot;#0000ff&quot;&gt;&quot;schema:image&quot;&lt;/font&gt;: [&lt;br&gt;&amp;nbsp; &lt;font color=&quot;#009900&quot;&gt;&quot;http://example.com/image.jpg&quot;,&lt;br&gt;&amp;nbsp; &quot;http://example.com/image2.jpg&quot;&lt;/font&gt;&lt;br&gt;] }" style="text;html=1;strokeColor=none;fillColor=none;align=left;verticalAlign=top;whiteSpace=wrap;rounded=0;" vertex="1" parent="1">
                    <mxGeometry x="40" y="760" width="330" height="80" as="geometry"/>
                </mxCell>
                <mxCell id="22" style="edgeStyle=orthogonalEdgeStyle;rounded=0;orthogonalLoop=1;jettySize=auto;html=1;exitX=0.5;exitY=1;exitDx=0;exitDy=0;entryX=0.5;entryY=0;entryDx=0;entryDy=0;" edge="1" parent="1" source="6" target="24">
                    <mxGeometry relative="1" as="geometry">
                        <mxPoint x="759.9999999999998" y="1520" as="targetPoint"/>
                    </mxGeometry>
                </mxCell>
                <mxCell id="6" value="Image widget&lt;br&gt;Value changes / additions / removals" style="rounded=0;whiteSpace=wrap;html=1;align=center;" vertex="1" parent="1">
                    <mxGeometry x="700" y="1370" width="120" height="60" as="geometry"/>
                </mxCell>
                <mxCell id="13" style="edgeStyle=orthogonalEdgeStyle;rounded=0;orthogonalLoop=1;jettySize=auto;html=1;exitX=0.5;exitY=1;exitDx=0;exitDy=0;entryX=0.5;entryY=0;entryDx=0;entryDy=0;" edge="1" parent="1" source="7" target="10">
                    <mxGeometry relative="1" as="geometry"/>
                </mxCell>
                <mxCell id="7" value="&lt;i style=&quot;text-align: left&quot;&gt;&lt;font color=&quot;#666666&quot;&gt;Single value collapsed&lt;/font&gt;&lt;br&gt;&lt;/i&gt;" style="rounded=0;whiteSpace=wrap;html=1;align=center;" vertex="1" parent="1">
                    <mxGeometry x="570" y="1110" width="120" height="60" as="geometry"/>
                </mxCell>
                <mxCell id="14" style="edgeStyle=orthogonalEdgeStyle;rounded=0;orthogonalLoop=1;jettySize=auto;html=1;exitX=0.5;exitY=1;exitDx=0;exitDy=0;" edge="1" parent="1" source="8">
                    <mxGeometry relative="1" as="geometry">
                        <mxPoint x="760" y="1270" as="targetPoint"/>
                    </mxGeometry>
                </mxCell>
                <mxCell id="8" value="&lt;i style=&quot;text-align: left&quot;&gt;&lt;font color=&quot;#666666&quot;&gt;Unordered multiple value&lt;br&gt;&lt;/font&gt;&lt;/i&gt;" style="rounded=0;whiteSpace=wrap;html=1;align=center;" vertex="1" parent="1">
                    <mxGeometry x="700" y="1110" width="120" height="60" as="geometry"/>
                </mxCell>
                <mxCell id="15" style="edgeStyle=orthogonalEdgeStyle;rounded=0;orthogonalLoop=1;jettySize=auto;html=1;exitX=0.5;exitY=1;exitDx=0;exitDy=0;" edge="1" parent="1" source="9">
                    <mxGeometry relative="1" as="geometry">
                        <mxPoint x="760" y="1270" as="targetPoint"/>
                    </mxGeometry>
                </mxCell>
                <mxCell id="9" value="&lt;font color=&quot;#666666&quot; style=&quot;text-align: left&quot;&gt;&lt;i&gt;Ordered multiple value groups with additional&amp;nbsp;properties&lt;/i&gt;&lt;/font&gt;" style="rounded=0;whiteSpace=wrap;html=1;align=center;" vertex="1" parent="1">
                    <mxGeometry x="830" y="1110" width="120" height="60" as="geometry"/>
                </mxCell>
                <mxCell id="28" style="edgeStyle=orthogonalEdgeStyle;rounded=0;orthogonalLoop=1;jettySize=auto;html=1;exitX=0.5;exitY=1;exitDx=0;exitDy=0;entryX=0.5;entryY=0;entryDx=0;entryDy=0;" edge="1" parent="1" source="10" target="6">
                    <mxGeometry relative="1" as="geometry"/>
                </mxCell>
                <mxCell id="10" value="FieldValues" style="rounded=0;whiteSpace=wrap;html=1;align=center;" vertex="1" parent="1">
                    <mxGeometry x="700" y="1270" width="120" height="60" as="geometry"/>
                </mxCell>
                <mxCell id="11" value="this.Values.get(index, '_main'), would return &lt;font color=&quot;#0000ff&quot;&gt;schema:url or schema:image&lt;br&gt;&lt;/font&gt;this.Values.get(index, 'width'), would return&amp;nbsp;&lt;font color=&quot;#0000ff&quot;&gt;schema:width&lt;br&gt;&lt;/font&gt;this.Values.get(index, 'x1'), would return&amp;nbsp;&lt;font color=&quot;#0000ff&quot;&gt;focalPoint:x1&lt;br&gt;&lt;/font&gt;&lt;br&gt;this.values.set works in the same manner" style="text;html=1;strokeColor=none;fillColor=none;align=left;verticalAlign=top;whiteSpace=wrap;rounded=0;" vertex="1" parent="1">
                    <mxGeometry x="850" y="1360" width="400" height="80" as="geometry"/>
                </mxCell>
                <mxCell id="12" value="&lt;font color=&quot;#666666&quot;&gt;&lt;div style=&quot;color: rgb(204 , 204 , 204) ; background-color: rgb(36 , 36 , 36) ; font-family: &amp;#34;droid sans mono&amp;#34; , monospace , monospace , &amp;#34;droid sans fallback&amp;#34; ; line-height: 21px&quot;&gt;&lt;div style=&quot;color: rgb(0 , 0 , 0) ; background-color: rgb(255 , 255 , 255) ; font-family: &amp;#34;droid sans mono&amp;#34; , monospace , monospace , &amp;#34;droid sans fallback&amp;#34; ; line-height: 21px&quot;&gt;&lt;div&gt;@prefix &lt;span style=&quot;color: #0000ff&quot;&gt;rdfs:&lt;/span&gt;          &lt;span style=&quot;color: #267f99&quot;&gt;&amp;lt;http://www.w3.org/2000/01/rdf-schema#&amp;gt;&lt;/span&gt; .&lt;/div&gt;&lt;div&gt;@prefix &lt;span style=&quot;color: #0000ff&quot;&gt;form:&lt;/span&gt;          &lt;span style=&quot;color: #267f99&quot;&gt;&amp;lt;http://localhost:8070/form.ttl#&amp;gt;&lt;/span&gt; .&lt;/div&gt;&lt;div&gt;@prefix &lt;span style=&quot;color: #0000ff&quot;&gt;personForm:&lt;/span&gt;    &lt;span style=&quot;color: #267f99&quot;&gt;&amp;lt;http://localhost:8070/person.form.ttl#&amp;gt;&lt;/span&gt; .&lt;/div&gt;&lt;div&gt;@prefix &lt;span style=&quot;color: #0000ff&quot;&gt;schema:&lt;/span&gt;        &lt;span style=&quot;color: #267f99&quot;&gt;&amp;lt;http://schema.org/&amp;gt;&lt;/span&gt; .&lt;/div&gt;&lt;div&gt;@prefix &lt;span style=&quot;color: #0000ff&quot;&gt;focalPoint:&lt;/span&gt;    &lt;span style=&quot;color: #267f99&quot;&gt;&amp;lt;http://localhost:8070/focalPoint.ttl#&amp;gt;&lt;/span&gt; .&lt;/div&gt;&lt;br&gt;&lt;div&gt;&lt;span style=&quot;color: #0000ff&quot;&gt;personForm:&lt;/span&gt;&lt;span style=&quot;color: #001080&quot;&gt;image&lt;/span&gt;&lt;/div&gt;&lt;div&gt;    &lt;span style=&quot;color: #af00db&quot;&gt;&amp;nbsp; a&lt;/span&gt;                                &lt;span style=&quot;color: #0000ff&quot;&gt;form:&lt;/span&gt;&lt;span style=&quot;color: #001080&quot;&gt;Field&lt;/span&gt; ;&lt;/div&gt;&lt;div&gt;    &lt;span style=&quot;color: #0000ff&quot;&gt;&amp;nbsp; form:&lt;/span&gt;&lt;span style=&quot;color: #001080&quot;&gt;fieldWidget&lt;/span&gt;        &lt;span style=&quot;color: #a31515&quot;&gt;&quot;url-image&quot;&lt;/span&gt; ;&lt;/div&gt;&lt;div&gt;    &lt;span style=&quot;color: #0000ff&quot;&gt;&amp;nbsp; form:&lt;/span&gt;&lt;span style=&quot;color: #001080&quot;&gt;label&lt;/span&gt;                  &lt;span style=&quot;color: #a31515&quot;&gt;&quot;Image&quot;&lt;/span&gt;@&lt;span style=&quot;color: #267f99&quot;&gt;en&lt;/span&gt; ;&lt;/div&gt;&lt;div&gt;    &lt;span style=&quot;color: #0000ff&quot;&gt;&amp;nbsp; form:&lt;/span&gt;&lt;span style=&quot;color: #001080&quot;&gt;label&lt;/span&gt;                  &lt;span style=&quot;color: #a31515&quot;&gt;&quot;Afbeelding&quot;&lt;/span&gt;@&lt;span style=&quot;color: #267f99&quot;&gt;nl&lt;/span&gt; ;&lt;/div&gt;&lt;div&gt;    &lt;span style=&quot;color: #0000ff&quot;&gt;&amp;nbsp; form:&lt;/span&gt;&lt;span style=&quot;color: #001080&quot;&gt;innerBinding&lt;/span&gt;      &lt;span style=&quot;color: #0000ff&quot;&gt;schema:&lt;/span&gt;&lt;span style=&quot;color: #001080&quot;&gt;url&lt;/span&gt; ;&lt;/div&gt;&lt;div&gt;    &lt;span style=&quot;color: #0000ff&quot;&gt;&amp;nbsp; form:&lt;/span&gt;&lt;span style=&quot;color: #001080&quot;&gt;innerType&lt;/span&gt;          &lt;span style=&quot;color: #0000ff&quot;&gt;schema:&lt;/span&gt;&lt;span style=&quot;color: #001080&quot;&gt;ImageObject&lt;/span&gt; ;&lt;/div&gt;&lt;div&gt;    &lt;span style=&quot;color: #0000ff&quot;&gt;&amp;nbsp; form:&lt;/span&gt;&lt;span style=&quot;color: #001080&quot;&gt;binding&lt;/span&gt;              &lt;span style=&quot;color: #0000ff&quot;&gt;schema:&lt;/span&gt;&lt;span style=&quot;color: #001080&quot;&gt;image&lt;/span&gt; ;&lt;/div&gt;&lt;div&gt;    &lt;span style=&quot;color: #0000ff&quot;&gt;&amp;nbsp; form:&lt;/span&gt;&lt;span style=&quot;color: #001080&quot;&gt;focalPoint&lt;/span&gt;          &lt;span style=&quot;color: #0000ff&quot;&gt;focalPoint:&lt;/span&gt;&lt;span style=&quot;color: #001080&quot;&gt;x1&lt;/span&gt;, &lt;span style=&quot;color: #0000ff&quot;&gt;focalPoint:&lt;/span&gt;&lt;span style=&quot;color: #001080&quot;&gt;y1&lt;/span&gt;, &lt;span style=&quot;color: #0000ff&quot;&gt;focalPoint:&lt;/span&gt;&lt;span style=&quot;color: #001080&quot;&gt;x2&lt;/span&gt;, &lt;span style=&quot;color: #0000ff&quot;&gt;focalPoint:&lt;/span&gt;&lt;span style=&quot;color: #001080&quot;&gt;y2&lt;/span&gt; ;&lt;/div&gt;&lt;div&gt;    &lt;span style=&quot;color: #0000ff&quot;&gt;&amp;nbsp; form:&lt;/span&gt;&lt;span style=&quot;color: #001080&quot;&gt;dimensions&lt;/span&gt;       &lt;span style=&quot;color: #0000ff&quot;&gt;schema:&lt;/span&gt;&lt;span style=&quot;color: #001080&quot;&gt;width&lt;/span&gt;, &lt;span style=&quot;color: #0000ff&quot;&gt;schema:&lt;/span&gt;&lt;span style=&quot;color: #001080&quot;&gt;height&lt;/span&gt; ;&lt;/div&gt;&lt;div&gt;    &lt;span style=&quot;color: #0000ff&quot;&gt;&amp;nbsp; form:&lt;/span&gt;&lt;span style=&quot;color: #001080&quot;&gt;order&lt;/span&gt;                 &lt;span style=&quot;color: #098658&quot;&gt;3&lt;/span&gt; ;&lt;/div&gt;&lt;div&gt;    &lt;span style=&quot;color: #0000ff&quot;&gt;&amp;nbsp; form:&lt;/span&gt;&lt;span style=&quot;color: #001080&quot;&gt;multiple&lt;/span&gt;             &lt;span style=&quot;color: #0000ff&quot;&gt;true&lt;/span&gt; ;&lt;/div&gt;&lt;div&gt;&lt;div&gt;&lt;span style=&quot;color: rgb(0 , 0 , 255)&quot;&gt;&amp;nbsp; form:&lt;/span&gt;&lt;span style=&quot;color: rgb(0 , 16 , 128)&quot;&gt;translatable&lt;/span&gt;       &lt;span style=&quot;color: rgb(0 , 0 , 255)&quot;&gt;true&lt;/span&gt; .&lt;br&gt;&lt;/div&gt;&lt;/div&gt;&lt;br&gt;&lt;br&gt;&lt;/div&gt;&lt;/div&gt;&lt;/font&gt;" style="text;html=1;strokeColor=none;fillColor=none;align=left;verticalAlign=top;whiteSpace=wrap;rounded=0;" vertex="1" parent="1">
                    <mxGeometry x="560" y="115" width="610" height="440" as="geometry"/>
                </mxCell>
                <mxCell id="18" value="Deserialization" style="rounded=1;whiteSpace=wrap;html=1;align=center;" vertex="1" parent="1">
                    <mxGeometry x="700" y="1230" width="120" height="20" as="geometry"/>
                </mxCell>
                <mxCell id="26" style="edgeStyle=orthogonalEdgeStyle;rounded=0;orthogonalLoop=1;jettySize=auto;html=1;exitX=0.5;exitY=1;exitDx=0;exitDy=0;" edge="1" parent="1" source="20" target="25">
                    <mxGeometry relative="1" as="geometry"/>
                </mxCell>
                <mxCell id="27" style="edgeStyle=orthogonalEdgeStyle;rounded=0;orthogonalLoop=1;jettySize=auto;html=1;exitX=0.5;exitY=1;exitDx=0;exitDy=0;entryX=0.5;entryY=0;entryDx=0;entryDy=0;" edge="1" parent="1" source="20" target="23">
                    <mxGeometry relative="1" as="geometry"/>
                </mxCell>
                <mxCell id="20" value="Serialization" style="rounded=1;whiteSpace=wrap;html=1;align=center;" vertex="1" parent="1">
                    <mxGeometry x="700" y="1470" width="120" height="20" as="geometry"/>
                </mxCell>
                <mxCell id="23" value="&lt;i style=&quot;text-align: left&quot;&gt;&lt;font color=&quot;#666666&quot;&gt;Single value collapsed&lt;/font&gt;&lt;br&gt;&lt;/i&gt;" style="rounded=0;whiteSpace=wrap;html=1;align=center;" vertex="1" parent="1">
                    <mxGeometry x="570" y="1560" width="120" height="60" as="geometry"/>
                </mxCell>
                <mxCell id="24" value="&lt;i style=&quot;text-align: left&quot;&gt;&lt;font color=&quot;#666666&quot;&gt;Unordered multiple value&lt;br&gt;&lt;/font&gt;&lt;/i&gt;" style="rounded=0;whiteSpace=wrap;html=1;align=center;" vertex="1" parent="1">
                    <mxGeometry x="700" y="1560" width="120" height="60" as="geometry"/>
                </mxCell>
                <mxCell id="25" value="&lt;font color=&quot;#666666&quot; style=&quot;text-align: left&quot;&gt;&lt;i&gt;Ordered multiple value groups with additional&amp;nbsp;properties&lt;/i&gt;&lt;/font&gt;" style="rounded=0;whiteSpace=wrap;html=1;align=center;" vertex="1" parent="1">
                    <mxGeometry x="830" y="1560" width="120" height="60" as="geometry"/>
                </mxCell>
                <mxCell id="30" value="JSON-ld object" style="text;html=1;strokeColor=none;fillColor=none;align=center;verticalAlign=middle;whiteSpace=wrap;rounded=0;" vertex="1" parent="1">
                    <mxGeometry x="960" y="1580" width="90" height="20" as="geometry"/>
                </mxCell>
                <mxCell id="31" value="JSON-ld object" style="text;html=1;strokeColor=none;fillColor=none;align=center;verticalAlign=middle;whiteSpace=wrap;rounded=0;" vertex="1" parent="1">
                    <mxGeometry x="960" y="1130" width="90" height="20" as="geometry"/>
                </mxCell>
                <mxCell id="33" value="&lt;font style=&quot;font-size: 20px&quot;&gt;About the JSON-ld structures&lt;/font&gt;" style="text;html=1;strokeColor=none;fillColor=none;align=left;verticalAlign=middle;whiteSpace=wrap;rounded=0;" vertex="1" parent="1">
                    <mxGeometry x="40" y="660" width="310" height="20" as="geometry"/>
                </mxCell>
                <mxCell id="34" value="&lt;font style=&quot;font-size: 20px&quot;&gt;Form definition&lt;/font&gt;" style="text;html=1;strokeColor=none;fillColor=none;align=left;verticalAlign=middle;whiteSpace=wrap;rounded=0;" vertex="1" parent="1">
                    <mxGeometry x="560" y="85" width="310" height="20" as="geometry"/>
                </mxCell>
                <mxCell id="35" value="&lt;font style=&quot;font-size: 20px&quot;&gt;FormValues abstraction&lt;/font&gt;" style="text;html=1;strokeColor=none;fillColor=none;align=left;verticalAlign=middle;whiteSpace=wrap;rounded=0;" vertex="1" parent="1">
                    <mxGeometry x="560" y="1040" width="310" height="20" as="geometry"/>
                </mxCell>
                <mxCell id="37" value="&lt;div&gt;&lt;font color=&quot;#666666&quot;&gt;&lt;div&gt;&lt;div style=&quot;color: rgb(204 , 204 , 204) ; background-color: rgb(36 , 36 , 36) ; font-family: &amp;#34;droid sans mono&amp;#34; , monospace , monospace , &amp;#34;droid sans fallback&amp;#34; ; line-height: 21px&quot;&gt;&lt;div&gt;&lt;div style=&quot;color: rgb(0 , 0 , 0) ; background-color: rgb(255 , 255 , 255) ; font-family: &amp;#34;droid sans mono&amp;#34; , monospace , monospace , &amp;#34;droid sans fallback&amp;#34; ; line-height: 21px&quot;&gt;&lt;div&gt;&lt;div style=&quot;font-family: &amp;#34;droid sans mono&amp;#34; , monospace , monospace , &amp;#34;droid sans fallback&amp;#34; ; line-height: 21px&quot;&gt;&lt;div&gt;&amp;lt;https://example.com/persons/jane-doe&amp;gt;&lt;/div&gt;&lt;div&gt;    &lt;span style=&quot;color: #af00db&quot;&gt;&amp;nbsp; a&lt;/span&gt; &lt;span style=&quot;color: #0000ff&quot;&gt;schema:&lt;/span&gt;&lt;span style=&quot;color: #001080&quot;&gt;Person&lt;/span&gt; ;&lt;/div&gt;&lt;div&gt;    &lt;span style=&quot;color: #0000ff&quot;&gt;&amp;nbsp; schema:&lt;/span&gt;&lt;span style=&quot;color: #001080&quot;&gt;jobTitle&lt;/span&gt; &lt;span style=&quot;color: #a31515&quot;&gt;&quot;Professor&quot;&lt;/span&gt; ;&lt;/div&gt;&lt;div&gt;    &lt;span style=&quot;color: #0000ff&quot;&gt;&amp;nbsp; schema:&lt;/span&gt;&lt;span style=&quot;color: #001080&quot;&gt;name&lt;/span&gt; &lt;span style=&quot;color: #a31515&quot;&gt;&quot;Jane Doe&quot;&lt;/span&gt; ;&lt;/div&gt;&lt;div&gt;    &lt;span style=&quot;color: #0000ff&quot;&gt;&amp;nbsp; schema:&lt;/span&gt;&lt;span style=&quot;color: #001080&quot;&gt;givenName&lt;/span&gt; &lt;span style=&quot;color: #a31515&quot;&gt;&quot;Jane&quot;&lt;/span&gt; ;&lt;/div&gt;&lt;div&gt;    &lt;span style=&quot;color: #0000ff&quot;&gt;&amp;nbsp; schema:&lt;/span&gt;&lt;span style=&quot;color: #001080&quot;&gt;familyName&lt;/span&gt; &lt;span style=&quot;color: #a31515&quot;&gt;&quot;Doe&quot;&lt;/span&gt; ;&lt;/div&gt;&lt;div&gt;    &lt;span style=&quot;color: #0000ff&quot;&gt;&amp;nbsp; schema:&lt;/span&gt;&lt;span style=&quot;color: #001080&quot;&gt;telephone&lt;/span&gt; &lt;span style=&quot;color: #a31515&quot;&gt;&quot;(425) 123-4567&quot;&lt;/span&gt; ;&lt;/div&gt;&lt;div&gt;    &lt;span style=&quot;color: #0000ff&quot;&gt;&amp;nbsp; schema:&lt;/span&gt;&lt;span style=&quot;color: #001080&quot;&gt;image&lt;/span&gt; ( [&lt;/div&gt;&lt;div&gt;        &lt;span style=&quot;color: #0000ff&quot;&gt;&amp;nbsp; &amp;nbsp; focalPoint:&lt;/span&gt;&lt;span style=&quot;color: #001080&quot;&gt;x1&lt;/span&gt; &lt;span style=&quot;color: #098658&quot;&gt;20&lt;/span&gt; ;&lt;/div&gt;&lt;div&gt;        &lt;span style=&quot;color: #0000ff&quot;&gt;&amp;nbsp; &amp;nbsp; focalPoint:&lt;/span&gt;&lt;span style=&quot;color: #001080&quot;&gt;y1&lt;/span&gt; &lt;span style=&quot;color: #098658&quot;&gt;20&lt;/span&gt; ;&lt;/div&gt;&lt;div&gt;        &lt;span style=&quot;color: #0000ff&quot;&gt;&amp;nbsp; &amp;nbsp; focalPoint:&lt;/span&gt;&lt;span style=&quot;color: #001080&quot;&gt;x2&lt;/span&gt; &lt;span style=&quot;color: #098658&quot;&gt;80&lt;/span&gt; ;&lt;/div&gt;&lt;div&gt;        &lt;span style=&quot;color: #0000ff&quot;&gt;&amp;nbsp; &amp;nbsp; focalPoint:&lt;/span&gt;&lt;span style=&quot;color: #001080&quot;&gt;y2&lt;/span&gt; &lt;span style=&quot;color: #098658&quot;&gt;80&lt;/span&gt; ;&lt;/div&gt;&lt;div&gt;        &lt;span style=&quot;color: #0000ff&quot;&gt;&amp;nbsp; &amp;nbsp; schema:&lt;/span&gt;&lt;span style=&quot;color: #001080&quot;&gt;url&lt;/span&gt; &lt;span style=&quot;color: #a31515&quot;&gt;&quot;https://images.unsplash.com/photo-1.jpg&quot;&lt;/span&gt;&lt;/div&gt;&lt;div&gt;&amp;nbsp; ] [&lt;/div&gt;&lt;div&gt;        &lt;span style=&quot;color: #0000ff&quot;&gt;&amp;nbsp; &amp;nbsp; focalPoint:&lt;/span&gt;&lt;span style=&quot;color: #001080&quot;&gt;x1&lt;/span&gt; &lt;span style=&quot;color: #098658&quot;&gt;30&lt;/span&gt; ;&lt;/div&gt;&lt;div&gt;        &lt;span style=&quot;color: #0000ff&quot;&gt;&amp;nbsp; &amp;nbsp; focalPoint:&lt;/span&gt;&lt;span style=&quot;color: #001080&quot;&gt;y1&lt;/span&gt; &lt;span style=&quot;color: #098658&quot;&gt;30&lt;/span&gt; ;&lt;/div&gt;&lt;div&gt;        &lt;span style=&quot;color: #0000ff&quot;&gt;&amp;nbsp; &amp;nbsp; focalPoint:&lt;/span&gt;&lt;span style=&quot;color: #001080&quot;&gt;x2&lt;/span&gt; &lt;span style=&quot;color: #098658&quot;&gt;70&lt;/span&gt; ;&lt;/div&gt;&lt;div&gt;        &lt;span style=&quot;color: #0000ff&quot;&gt;&amp;nbsp; &amp;nbsp; focalPoint:&lt;/span&gt;&lt;span style=&quot;color: #001080&quot;&gt;y2&lt;/span&gt; &lt;span style=&quot;color: #098658&quot;&gt;70&lt;/span&gt; ;&lt;/div&gt;&lt;div&gt;        &lt;span style=&quot;color: #0000ff&quot;&gt;&amp;nbsp; &amp;nbsp; schema:&lt;/span&gt;&lt;span style=&quot;color: #001080&quot;&gt;url&lt;/span&gt; &lt;span style=&quot;color: #a31515&quot;&gt;&quot;https://images.unsplash.com/photo-2.jpg&quot;&lt;/span&gt;&lt;/div&gt;&lt;div&gt;&amp;nbsp; ] ) ;&lt;/div&gt;&lt;div&gt;    &lt;span style=&quot;color: #0000ff&quot;&gt;&amp;nbsp; schema:&lt;/span&gt;&lt;span style=&quot;color: #001080&quot;&gt;url&lt;/span&gt; &lt;span style=&quot;color: #267f99&quot;&gt;&amp;lt;http://www.janedoe.com&amp;gt;&lt;/span&gt; .&lt;/div&gt;&lt;br&gt;&lt;/div&gt;&lt;/div&gt;&lt;/div&gt;&lt;/div&gt;&lt;/div&gt;&lt;/div&gt;&lt;/font&gt;&lt;/div&gt;" style="text;html=1;strokeColor=none;fillColor=none;align=left;verticalAlign=top;whiteSpace=wrap;rounded=0;" vertex="1" parent="1">
                    <mxGeometry x="40" y="115" width="410" height="440" as="geometry"/>
                </mxCell>
                <mxCell id="38" value="&lt;font style=&quot;font-size: 20px&quot;&gt;Example data in turtle format&lt;/font&gt;" style="text;html=1;strokeColor=none;fillColor=none;align=left;verticalAlign=middle;whiteSpace=wrap;rounded=0;" vertex="1" parent="1">
                    <mxGeometry x="40" y="85" width="310" height="20" as="geometry"/>
                </mxCell>
                <mxCell id="39" value="&lt;div style=&quot;background-color: rgb(36 , 36 , 36) ; font-family: &amp;#34;droid sans mono&amp;#34; , monospace , monospace , &amp;#34;droid sans fallback&amp;#34; ; line-height: 21px&quot;&gt;&lt;div style=&quot;background-color: rgb(255 , 255 , 255) ; font-family: &amp;#34;droid sans mono&amp;#34; , monospace , monospace , &amp;#34;droid sans fallback&amp;#34; ; line-height: 21px&quot;&gt;&lt;div style=&quot;font-family: &amp;#34;droid sans mono&amp;#34; , monospace , monospace , &amp;#34;droid sans fallback&amp;#34; ; line-height: 21px&quot;&gt;&lt;div style=&quot;color: rgb(0 , 0 , 0)&quot;&gt;&lt;span style=&quot;color: rgb(0 , 0 , 255)&quot;&gt;schema:&lt;/span&gt;&lt;span style=&quot;color: rgb(0 , 16 , 128)&quot;&gt;image&lt;/span&gt;&amp;nbsp;[&lt;br&gt;&lt;/div&gt;&lt;div style=&quot;color: rgb(0 , 0 , 0)&quot;&gt;&lt;span style=&quot;color: #0000ff&quot;&gt;&amp;nbsp; focalPoint:&lt;/span&gt;&lt;span style=&quot;color: #001080&quot;&gt;x1&lt;/span&gt; &lt;span style=&quot;color: #098658&quot;&gt;20&lt;/span&gt; ;&lt;/div&gt;&lt;div style=&quot;color: rgb(0 , 0 , 0)&quot;&gt;&lt;span style=&quot;color: #0000ff&quot;&gt;&amp;nbsp; focalPoint:&lt;/span&gt;&lt;span style=&quot;color: #001080&quot;&gt;y1&lt;/span&gt; &lt;span style=&quot;color: #098658&quot;&gt;20&lt;/span&gt; ;&lt;/div&gt;&lt;div style=&quot;color: rgb(0 , 0 , 0)&quot;&gt;&lt;span style=&quot;color: #0000ff&quot;&gt;&amp;nbsp; focalPoint:&lt;/span&gt;&lt;span style=&quot;color: #001080&quot;&gt;x2&lt;/span&gt; &lt;span style=&quot;color: #098658&quot;&gt;80&lt;/span&gt; ;&lt;/div&gt;&lt;div style=&quot;color: rgb(0 , 0 , 0)&quot;&gt;&lt;span style=&quot;color: #0000ff&quot;&gt;&amp;nbsp; focalPoint:&lt;/span&gt;&lt;span style=&quot;color: #001080&quot;&gt;y2&lt;/span&gt; &lt;span style=&quot;color: #098658&quot;&gt;80&lt;/span&gt; ;&lt;/div&gt;&lt;div style=&quot;color: rgb(0 , 0 , 0)&quot;&gt;&amp;nbsp;&amp;nbsp;&lt;span style=&quot;color: rgb(0 , 0 , 255)&quot;&gt;schema:&lt;/span&gt;&lt;font color=&quot;#001080&quot;&gt;author &amp;lt;&lt;/font&gt;&lt;span style=&quot;color: rgb(163 , 21 , 21)&quot;&gt;http://all-authors.com/lorem-ipsum&amp;gt;&lt;/span&gt;&lt;/div&gt;&lt;div&gt;&amp;nbsp;&amp;nbsp;&lt;span style=&quot;color: rgb(0 , 0 , 255)&quot;&gt;schema:&lt;/span&gt;&lt;font color=&quot;#001080&quot;&gt;about&amp;nbsp;&lt;/font&gt;&lt;span style=&quot;color: rgb(163 , 21 , 21)&quot;&gt;&quot;Lorem ipsum&quot;&lt;/span&gt;&lt;/div&gt;&lt;div style=&quot;color: rgb(0 , 0 , 0)&quot;&gt;&lt;span style=&quot;color: #0000ff&quot;&gt;&amp;nbsp; schema:&lt;/span&gt;&lt;span style=&quot;color: #001080&quot;&gt;url&lt;/span&gt; &lt;span style=&quot;color: #a31515&quot;&gt;&quot;https://images.unsplash.com/photo-1.jpg&quot;&lt;/span&gt;&lt;/div&gt;&lt;div style=&quot;color: rgb(0 , 0 , 0)&quot;&gt;]&lt;/div&gt;&lt;/div&gt;&lt;/div&gt;&lt;/div&gt;" style="text;html=1;strokeColor=none;fillColor=none;align=left;verticalAlign=top;whiteSpace=wrap;rounded=0;" vertex="1" parent="1">
                    <mxGeometry x="1280" y="120" width="410" height="200" as="geometry"/>
                </mxCell>
                <mxCell id="40" value="&lt;font style=&quot;font-size: 20px&quot;&gt;Nested fields in data&lt;/font&gt;" style="text;html=1;strokeColor=none;fillColor=none;align=left;verticalAlign=middle;whiteSpace=wrap;rounded=0;" vertex="1" parent="1">
                    <mxGeometry x="1280" y="80" width="310" height="20" as="geometry"/>
                </mxCell>
                <mxCell id="41" value="&lt;font style=&quot;font-size: 20px&quot;&gt;Form looks like&lt;/font&gt;" style="text;html=1;strokeColor=none;fillColor=none;align=left;verticalAlign=middle;whiteSpace=wrap;rounded=0;" vertex="1" parent="1">
                    <mxGeometry x="560" y="660" width="310" height="20" as="geometry"/>
                </mxCell>
                <mxCell id="68" value="&lt;font style=&quot;font-size: 20px&quot;&gt;Form looks like&lt;/font&gt;" style="text;html=1;strokeColor=none;fillColor=none;align=left;verticalAlign=middle;whiteSpace=wrap;rounded=0;" vertex="1" parent="1">
                    <mxGeometry x="1280" y="420" width="310" height="20" as="geometry"/>
                </mxCell>
                <mxCell id="69" value="&amp;nbsp; Add another value" style="rounded=0;whiteSpace=wrap;html=1;align=left;fillColor=#009900;" vertex="1" parent="1">
                    <mxGeometry x="1280" y="1059.52" width="120" height="30.48" as="geometry"/>
                </mxCell>
                <mxCell id="78" value="" style="group" vertex="1" connectable="0" parent="1">
                    <mxGeometry x="1280" y="460" width="340" height="280" as="geometry"/>
                </mxCell>
                <mxCell id="77" value="" style="rounded=0;whiteSpace=wrap;html=1;dashed=1;align=left;strokeColor=none;fillColor=#CCCCCC;" vertex="1" parent="78">
                    <mxGeometry width="340" height="280" as="geometry"/>
                </mxCell>
                <mxCell id="59" value="&amp;nbsp; https://example/com/image3.jpg" style="rounded=0;whiteSpace=wrap;html=1;fillColor=#E6E6E6;align=left;" vertex="1" parent="78">
                    <mxGeometry x="10" y="20" width="320" height="30.476190476190474" as="geometry"/>
                </mxCell>
                <mxCell id="61" value="" style="rounded=0;whiteSpace=wrap;html=1;fillColor=#E6E6E6;align=left;" vertex="1" parent="78">
                    <mxGeometry x="10" y="58.0952380952381" width="192" height="76.19047619047619" as="geometry"/>
                </mxCell>
                <mxCell id="62" value="" style="endArrow=none;html=1;" edge="1" parent="78">
                    <mxGeometry x="10" y="20" width="50" height="50" as="geometry">
                        <mxPoint x="10" y="134.28571428571428" as="sourcePoint"/>
                        <mxPoint x="50" y="96.1904761904762" as="targetPoint"/>
                    </mxGeometry>
                </mxCell>
                <mxCell id="63" value="" style="endArrow=none;html=1;entryX=0.396;entryY=1;entryDx=0;entryDy=0;entryPerimeter=0;" edge="1" parent="78">
                    <mxGeometry x="10" y="20" width="50" height="50" as="geometry">
                        <mxPoint x="50" y="96.1904761904762" as="sourcePoint"/>
                        <mxPoint x="90.03199999999993" y="130.47619047619048" as="targetPoint"/>
                    </mxGeometry>
                </mxCell>
                <mxCell id="64" value="" style="endArrow=none;html=1;" edge="1" parent="78">
                    <mxGeometry x="10" y="20" width="50" height="50" as="geometry">
                        <mxPoint x="90" y="131.23809523809524" as="sourcePoint"/>
                        <mxPoint x="167.5999999999999" y="57.33333333333334" as="targetPoint"/>
                    </mxGeometry>
                </mxCell>
                <mxCell id="65" value="" style="ellipse;whiteSpace=wrap;html=1;aspect=fixed;fillColor=#E6E6E6;align=left;" vertex="1" parent="78">
                    <mxGeometry x="26" y="65.71428571428572" width="21.473684210526315" height="21.473684210526315" as="geometry"/>
                </mxCell>
                <mxCell id="66" value="" style="rounded=0;whiteSpace=wrap;html=1;dashed=1;strokeColor=#0000FF;fillColor=none;align=left;" vertex="1" parent="78">
                    <mxGeometry x="18" y="73.33333333333334" width="96" height="45.71428571428571" as="geometry"/>
                </mxCell>
                <mxCell id="72" value="This image shows a mountain" style="rounded=0;whiteSpace=wrap;html=1;fillColor=#E6E6E6;align=left;" vertex="1" parent="78">
                    <mxGeometry x="10" y="169.51999999999998" width="320" height="30.476190476190474" as="geometry"/>
                </mxCell>
                <mxCell id="73" value="&lt;font style=&quot;font-size: 12px&quot;&gt;&lt;i&gt;Image&lt;/i&gt;&lt;/font&gt;" style="text;html=1;strokeColor=none;fillColor=none;align=left;verticalAlign=middle;whiteSpace=wrap;rounded=0;" vertex="1" parent="78">
                    <mxGeometry x="10" width="310" height="20" as="geometry"/>
                </mxCell>
                <mxCell id="74" value="&lt;font style=&quot;font-size: 12px&quot;&gt;&lt;i&gt;About&lt;/i&gt;&lt;/font&gt;" style="text;html=1;strokeColor=none;fillColor=none;align=left;verticalAlign=middle;whiteSpace=wrap;rounded=0;" vertex="1" parent="78">
                    <mxGeometry x="10" y="149.52" width="310" height="20" as="geometry"/>
                </mxCell>
                <mxCell id="75" value="&lt;font style=&quot;font-size: 12px&quot;&gt;&lt;i&gt;Author&lt;/i&gt;&lt;/font&gt;" style="text;html=1;strokeColor=none;fillColor=none;align=left;verticalAlign=middle;whiteSpace=wrap;rounded=0;" vertex="1" parent="78">
                    <mxGeometry x="10" y="220" width="310" height="20" as="geometry"/>
                </mxCell>
                <mxCell id="76" value="Picasso" style="rounded=0;whiteSpace=wrap;html=1;fillColor=#E6E6E6;align=left;" vertex="1" parent="78">
                    <mxGeometry x="10" y="240" width="320" height="30.476190476190474" as="geometry"/>
                </mxCell>
                <mxCell id="79" value="" style="group" vertex="1" connectable="0" parent="1">
                    <mxGeometry x="1280" y="760" width="340" height="280" as="geometry"/>
                </mxCell>
                <mxCell id="80" value="" style="rounded=0;whiteSpace=wrap;html=1;dashed=1;align=left;strokeColor=none;fillColor=#CCCCCC;" vertex="1" parent="79">
                    <mxGeometry width="340" height="280" as="geometry"/>
                </mxCell>
                <mxCell id="81" value="&amp;nbsp; https://example/com/image4.jpg" style="rounded=0;whiteSpace=wrap;html=1;fillColor=#E6E6E6;align=left;" vertex="1" parent="79">
                    <mxGeometry x="10" y="20" width="320" height="30.476190476190474" as="geometry"/>
                </mxCell>
                <mxCell id="82" value="" style="rounded=0;whiteSpace=wrap;html=1;fillColor=#E6E6E6;align=left;" vertex="1" parent="79">
                    <mxGeometry x="10" y="58.0952380952381" width="192" height="76.19047619047619" as="geometry"/>
                </mxCell>
                <mxCell id="86" value="" style="ellipse;whiteSpace=wrap;html=1;aspect=fixed;fillColor=#E6E6E6;align=left;" vertex="1" parent="79">
                    <mxGeometry x="26" y="65.71428571428572" width="21.473684210526315" height="21.473684210526315" as="geometry"/>
                </mxCell>
                <mxCell id="87" value="" style="rounded=0;whiteSpace=wrap;html=1;dashed=1;strokeColor=#0000FF;fillColor=none;align=left;" vertex="1" parent="79">
                    <mxGeometry x="100" y="73.33333333333334" width="96" height="45.71428571428571" as="geometry"/>
                </mxCell>
                <mxCell id="88" value="This image shows a diagram&amp;nbsp;" style="rounded=0;whiteSpace=wrap;html=1;fillColor=#E6E6E6;align=left;" vertex="1" parent="79">
                    <mxGeometry x="10" y="169.51999999999998" width="320" height="30.476190476190474" as="geometry"/>
                </mxCell>
                <mxCell id="89" value="&lt;font style=&quot;font-size: 12px&quot;&gt;&lt;i&gt;Image&lt;/i&gt;&lt;/font&gt;" style="text;html=1;strokeColor=none;fillColor=none;align=left;verticalAlign=middle;whiteSpace=wrap;rounded=0;" vertex="1" parent="79">
                    <mxGeometry x="10" width="310" height="20" as="geometry"/>
                </mxCell>
                <mxCell id="90" value="&lt;font style=&quot;font-size: 12px&quot;&gt;&lt;i&gt;About&lt;/i&gt;&lt;/font&gt;" style="text;html=1;strokeColor=none;fillColor=none;align=left;verticalAlign=middle;whiteSpace=wrap;rounded=0;" vertex="1" parent="79">
                    <mxGeometry x="10" y="149.52" width="310" height="20" as="geometry"/>
                </mxCell>
                <mxCell id="91" value="&lt;font style=&quot;font-size: 12px&quot;&gt;&lt;i&gt;Author&lt;/i&gt;&lt;/font&gt;" style="text;html=1;strokeColor=none;fillColor=none;align=left;verticalAlign=middle;whiteSpace=wrap;rounded=0;" vertex="1" parent="79">
                    <mxGeometry x="10" y="220" width="310" height="20" as="geometry"/>
                </mxCell>
                <mxCell id="92" value="Rembrandt" style="rounded=0;whiteSpace=wrap;html=1;fillColor=#E6E6E6;align=left;" vertex="1" parent="79">
                    <mxGeometry x="10" y="240" width="320" height="30.476190476190474" as="geometry"/>
                </mxCell>
                <mxCell id="100" style="edgeStyle=orthogonalEdgeStyle;rounded=0;orthogonalLoop=1;jettySize=auto;html=1;exitX=1;exitY=0.5;exitDx=0;exitDy=0;fontColor=#E6E6E6;" edge="1" parent="79" source="98" target="99">
                    <mxGeometry relative="1" as="geometry"/>
                </mxCell>
                <mxCell id="98" value="" style="ellipse;whiteSpace=wrap;html=1;aspect=fixed;fillColor=#E6E6E6;align=left;" vertex="1" parent="79">
                    <mxGeometry x="36" y="75.71428571428572" width="21.473684210526315" height="21.473684210526315" as="geometry"/>
                </mxCell>
                <mxCell id="99" value="" style="ellipse;whiteSpace=wrap;html=1;aspect=fixed;fillColor=#E6E6E6;align=left;" vertex="1" parent="79">
                    <mxGeometry x="154.26" y="85.45428571428572" width="21.473684210526315" height="21.473684210526315" as="geometry"/>
                </mxCell>
                <mxCell id="54" value="&amp;nbsp; Add another value" style="rounded=0;whiteSpace=wrap;html=1;align=left;fillColor=#009900;" vertex="1" parent="1">
                    <mxGeometry x="560" y="910" width="120" height="30.48" as="geometry"/>
                </mxCell>
                <mxCell id="102" value="" style="rounded=0;whiteSpace=wrap;html=1;dashed=1;align=left;strokeColor=none;fillColor=#CCCCCC;" vertex="1" parent="1">
                    <mxGeometry x="560" y="690" width="340" height="135" as="geometry"/>
                </mxCell>
                <mxCell id="42" value="&amp;nbsp; https://example/com/image3.jpg" style="rounded=0;whiteSpace=wrap;html=1;fillColor=#E6E6E6;align=left;" vertex="1" parent="1">
                    <mxGeometry x="570" y="701.05" width="320" height="30.476190476190474" as="geometry"/>
                </mxCell>
                <mxCell id="43" value="&amp;nbsp; URL of image" style="rounded=0;whiteSpace=wrap;html=1;fillColor=#E6E6E6;align=left;" vertex="1" parent="1">
                    <mxGeometry x="570" y="856.0538095238096" width="320" height="30.476190476190474" as="geometry"/>
                </mxCell>
                <mxCell id="44" value="" style="rounded=0;whiteSpace=wrap;html=1;fillColor=#E6E6E6;align=left;" vertex="1" parent="1">
                    <mxGeometry x="570" y="739.145238095238" width="192" height="76.19047619047619" as="geometry"/>
                </mxCell>
                <mxCell id="45" value="" style="endArrow=none;html=1;" edge="1" parent="1">
                    <mxGeometry x="570" y="701.05" width="50" height="50" as="geometry">
                        <mxPoint x="570" y="815.3357142857143" as="sourcePoint"/>
                        <mxPoint x="610" y="777.2404761904762" as="targetPoint"/>
                    </mxGeometry>
                </mxCell>
                <mxCell id="46" value="" style="endArrow=none;html=1;entryX=0.396;entryY=1;entryDx=0;entryDy=0;entryPerimeter=0;" edge="1" parent="1">
                    <mxGeometry x="570" y="701.05" width="50" height="50" as="geometry">
                        <mxPoint x="610" y="777.2404761904762" as="sourcePoint"/>
                        <mxPoint x="650.0319999999999" y="811.5261904761905" as="targetPoint"/>
                    </mxGeometry>
                </mxCell>
                <mxCell id="47" value="" style="endArrow=none;html=1;" edge="1" parent="1">
                    <mxGeometry x="570" y="701.05" width="50" height="50" as="geometry">
                        <mxPoint x="650" y="812.2880952380953" as="sourcePoint"/>
                        <mxPoint x="727.6" y="738.3833333333333" as="targetPoint"/>
                    </mxGeometry>
                </mxCell>
                <mxCell id="48" value="" style="ellipse;whiteSpace=wrap;html=1;aspect=fixed;fillColor=#E6E6E6;align=left;" vertex="1" parent="1">
                    <mxGeometry x="586" y="746.7642857142857" width="21.473684210526315" height="21.473684210526315" as="geometry"/>
                </mxCell>
                <mxCell id="51" value="" style="rounded=0;whiteSpace=wrap;html=1;dashed=1;strokeColor=#0000FF;fillColor=none;align=left;" vertex="1" parent="1">
                    <mxGeometry x="578" y="754.3833333333333" width="96" height="45.71428571428571" as="geometry"/>
                </mxCell>
                <mxCell id="106" value="&lt;font color=&quot;#666666&quot;&gt;&lt;div style=&quot;color: rgb(204 , 204 , 204) ; background-color: rgb(36 , 36 , 36) ; font-family: &amp;#34;droid sans mono&amp;#34; , monospace , monospace , &amp;#34;droid sans fallback&amp;#34; ; line-height: 21px&quot;&gt;&lt;div style=&quot;color: rgb(0 , 0 , 0) ; background-color: rgb(255 , 255 , 255) ; font-family: &amp;#34;droid sans mono&amp;#34; , monospace , monospace , &amp;#34;droid sans fallback&amp;#34; ; line-height: 21px&quot;&gt;&lt;div&gt;@prefix &lt;span style=&quot;color: #0000ff&quot;&gt;rdfs:&lt;/span&gt;          &lt;span style=&quot;color: #267f99&quot;&gt;&amp;lt;http://www.w3.org/2000/01/rdf-schema#&amp;gt;&lt;/span&gt; .&lt;/div&gt;&lt;div&gt;@prefix &lt;span style=&quot;color: #0000ff&quot;&gt;form:&lt;/span&gt;          &lt;span style=&quot;color: #267f99&quot;&gt;&amp;lt;http://localhost:8070/form.ttl#&amp;gt;&lt;/span&gt; .&lt;/div&gt;&lt;div&gt;@prefix &lt;span style=&quot;color: #0000ff&quot;&gt;personForm:&lt;/span&gt;    &lt;span style=&quot;color: #267f99&quot;&gt;&amp;lt;http://localhost:8070/person.form.ttl#&amp;gt;&lt;/span&gt; .&lt;/div&gt;&lt;div&gt;@prefix &lt;span style=&quot;color: #0000ff&quot;&gt;schema:&lt;/span&gt;        &lt;span style=&quot;color: #267f99&quot;&gt;&amp;lt;http://schema.org/&amp;gt;&lt;/span&gt; .&lt;/div&gt;&lt;div&gt;@prefix &lt;span style=&quot;color: #0000ff&quot;&gt;focalPoint:&lt;/span&gt;    &lt;span style=&quot;color: #267f99&quot;&gt;&amp;lt;http://localhost:8070/focalPoint.ttl#&amp;gt;&lt;/span&gt; .&lt;/div&gt;&lt;br&gt;&lt;/div&gt;&lt;div style=&quot;color: rgb(0 , 0 , 0) ; background-color: rgb(255 , 255 , 255) ; font-family: &amp;#34;droid sans mono&amp;#34; , monospace , monospace , &amp;#34;droid sans fallback&amp;#34; ; line-height: 21px&quot;&gt;&lt;div style=&quot;font-family: &amp;#34;droid sans mono&amp;#34; , monospace , monospace , &amp;#34;droid sans fallback&amp;#34;&quot;&gt;&lt;span style=&quot;color: rgb(0 , 0 , 255)&quot;&gt;personForm:&lt;/span&gt;&lt;span style=&quot;color: rgb(0 , 16 , 128)&quot;&gt;images&lt;/span&gt;&lt;/div&gt;&lt;div style=&quot;font-family: &amp;#34;droid sans mono&amp;#34; , monospace , monospace , &amp;#34;droid sans fallback&amp;#34;&quot;&gt;&lt;span style=&quot;color: rgb(175 , 0 , 219)&quot;&gt;&amp;nbsp; a&lt;/span&gt;&amp;nbsp;&lt;span style=&quot;color: rgb(0 , 0 , 255)&quot;&gt;form:&lt;/span&gt;&lt;span style=&quot;color: rgb(0 , 16 , 128)&quot;&gt;Container&lt;/span&gt;&lt;/div&gt;&lt;div style=&quot;font-family: &amp;#34;droid sans mono&amp;#34; , monospace , monospace , &amp;#34;droid sans fallback&amp;#34;&quot;&gt;&lt;span style=&quot;color: rgb(0 , 0 , 255)&quot;&gt;&amp;nbsp; form:&lt;/span&gt;&lt;span style=&quot;color: rgb(0 , 16 , 128)&quot;&gt;label&lt;/span&gt;&amp;nbsp;&lt;span style=&quot;color: rgb(163 , 21 , 21)&quot;&gt;&quot;Images&quot;&lt;/span&gt;@&lt;span style=&quot;color: rgb(38 , 127 , 153)&quot;&gt;en&lt;/span&gt;&amp;nbsp;;&lt;/div&gt;&lt;div style=&quot;font-family: &amp;#34;droid sans mono&amp;#34; , monospace , monospace , &amp;#34;droid sans fallback&amp;#34;&quot;&gt;&lt;span style=&quot;color: rgb(0 , 0 , 255)&quot;&gt;&amp;nbsp; form:&lt;/span&gt;&lt;span style=&quot;color: rgb(0 , 16 , 128)&quot;&gt;label&lt;/span&gt;&amp;nbsp;&lt;span style=&quot;color: rgb(163 , 21 , 21)&quot;&gt;&quot;Afbeeldingen&quot;&lt;/span&gt;@&lt;span style=&quot;color: rgb(38 , 127 , 153)&quot;&gt;nl&lt;/span&gt;&amp;nbsp;;&lt;/div&gt;&lt;div&gt;&lt;br&gt;&lt;/div&gt;&lt;/div&gt;&lt;div style=&quot;color: rgb(0 , 0 , 0) ; background-color: rgb(255 , 255 , 255) ; font-family: &amp;#34;droid sans mono&amp;#34; , monospace , monospace , &amp;#34;droid sans fallback&amp;#34; ; line-height: 21px&quot;&gt;&lt;div style=&quot;font-family: &amp;#34;droid sans mono&amp;#34; , monospace , monospace , &amp;#34;droid sans fallback&amp;#34; ; line-height: 21px&quot;&gt;&lt;div&gt;&lt;span style=&quot;color: #0000ff&quot;&gt;personForm:&lt;/span&gt;&lt;span style=&quot;color: #001080&quot;&gt;image&lt;/span&gt;&lt;/div&gt;&lt;div&gt;&lt;span style=&quot;color: #af00db&quot;&gt;&amp;nbsp; a&lt;/span&gt;                   &lt;span style=&quot;color: #0000ff&quot;&gt;form:&lt;/span&gt;&lt;span style=&quot;color: #001080&quot;&gt;Field&lt;/span&gt; ;&lt;/div&gt;&lt;div&gt;&lt;span style=&quot;color: #0000ff&quot;&gt;&amp;nbsp; form:&lt;/span&gt;&lt;span style=&quot;color: #001080&quot;&gt;fieldWidget&lt;/span&gt;    &lt;span style=&quot;color: #a31515&quot;&gt;&quot;url-image&quot;&lt;/span&gt; ;&lt;/div&gt;&lt;div&gt;&lt;span style=&quot;color: #0000ff&quot;&gt;&amp;nbsp; form:&lt;/span&gt;&lt;span style=&quot;color: #001080&quot;&gt;label&lt;/span&gt;          &lt;span style=&quot;color: #a31515&quot;&gt;&quot;Image&quot;&lt;/span&gt;@&lt;span style=&quot;color: #267f99&quot;&gt;en&lt;/span&gt; ;&lt;/div&gt;&lt;div&gt;&lt;span style=&quot;color: #0000ff&quot;&gt;&amp;nbsp; form:&lt;/span&gt;&lt;span style=&quot;color: #001080&quot;&gt;label&lt;/span&gt;          &lt;span style=&quot;color: #a31515&quot;&gt;&quot;Afbeelding&quot;&lt;/span&gt;@&lt;span style=&quot;color: #267f99&quot;&gt;nl&lt;/span&gt; ;&lt;/div&gt;&lt;div&gt;&lt;span style=&quot;color: #0000ff&quot;&gt;&amp;nbsp; form:&lt;/span&gt;&lt;span style=&quot;color: #001080&quot;&gt;innerBinding&lt;/span&gt;   &lt;span style=&quot;color: #0000ff&quot;&gt;schema:&lt;/span&gt;&lt;span style=&quot;color: #001080&quot;&gt;url&lt;/span&gt; ;&lt;/div&gt;&lt;div&gt;&lt;span style=&quot;color: #0000ff&quot;&gt;&amp;nbsp; form:&lt;/span&gt;&lt;span style=&quot;color: #001080&quot;&gt;innerType&lt;/span&gt;      &lt;span style=&quot;color: #0000ff&quot;&gt;schema:&lt;/span&gt;&lt;span style=&quot;color: #001080&quot;&gt;ImageObject&lt;/span&gt; ;&lt;/div&gt;&lt;div&gt;&lt;span style=&quot;color: #0000ff&quot;&gt;&amp;nbsp; form:&lt;/span&gt;&lt;span style=&quot;color: #001080&quot;&gt;binding&lt;/span&gt;        &lt;span style=&quot;color: #0000ff&quot;&gt;schema:&lt;/span&gt;&lt;span style=&quot;color: #001080&quot;&gt;image&lt;/span&gt; ;&lt;/div&gt;&lt;div&gt;&lt;span style=&quot;color: #0000ff&quot;&gt;&amp;nbsp; form:&lt;/span&gt;&lt;span style=&quot;color: #001080&quot;&gt;focalPoint&lt;/span&gt;     &lt;span style=&quot;color: #0000ff&quot;&gt;focalPoint:&lt;/span&gt;&lt;span style=&quot;color: #001080&quot;&gt;x1&lt;/span&gt;, &lt;span style=&quot;color: #0000ff&quot;&gt;focalPoint:&lt;/span&gt;&lt;span style=&quot;color: #001080&quot;&gt;y1&lt;/span&gt;, &lt;span style=&quot;color: #0000ff&quot;&gt;focalPoint:&lt;/span&gt;&lt;span style=&quot;color: #001080&quot;&gt;x2&lt;/span&gt;, &lt;span style=&quot;color: #0000ff&quot;&gt;focalPoint:&lt;/span&gt;&lt;span style=&quot;color: #001080&quot;&gt;y2&lt;/span&gt; ;&lt;/div&gt;&lt;div&gt;&lt;span style=&quot;color: #0000ff&quot;&gt;&amp;nbsp; form:&lt;/span&gt;&lt;span style=&quot;color: #001080&quot;&gt;dimensions&lt;/span&gt;     &lt;span style=&quot;color: #0000ff&quot;&gt;schema:&lt;/span&gt;&lt;span style=&quot;color: #001080&quot;&gt;width&lt;/span&gt;, &lt;span style=&quot;color: #0000ff&quot;&gt;schema:&lt;/span&gt;&lt;span style=&quot;color: #001080&quot;&gt;height&lt;/span&gt; ;&lt;/div&gt;&lt;div&gt;&lt;span style=&quot;color: #0000ff&quot;&gt;&amp;nbsp; form:&lt;/span&gt;&lt;span style=&quot;color: #001080&quot;&gt;order&lt;/span&gt;          &lt;span style=&quot;color: #098658&quot;&gt;3&lt;/span&gt; ;&lt;/div&gt;&lt;div&gt;&lt;span style=&quot;color: #0000ff&quot;&gt;&amp;nbsp; form:&lt;/span&gt;&lt;span style=&quot;color: #001080&quot;&gt;multiple&lt;/span&gt;       &lt;span style=&quot;color: #0000ff&quot;&gt;true&lt;/span&gt; ;&lt;/div&gt;&lt;div&gt;&lt;span style=&quot;color: #0000ff&quot;&gt;&amp;nbsp; form:&lt;/span&gt;&lt;span style=&quot;color: #001080&quot;&gt;translatable&lt;/span&gt;   &lt;span style=&quot;color: #0000ff&quot;&gt;true&lt;/span&gt; ;&lt;/div&gt;&lt;div&gt;&lt;span style=&quot;color: #0000ff&quot;&gt;&amp;nbsp; form:&lt;/span&gt;&lt;span style=&quot;color: #001080&quot;&gt;container&lt;/span&gt;      &lt;span style=&quot;color: #0000ff&quot;&gt;personForm:&lt;/span&gt;&lt;span style=&quot;color: #001080&quot;&gt;images&lt;/span&gt; .&lt;/div&gt;&lt;br&gt;&lt;div&gt;&lt;span style=&quot;color: #0000ff&quot;&gt;personForm:&lt;/span&gt;&lt;span style=&quot;color: #001080&quot;&gt;about&lt;/span&gt;&lt;/div&gt;&lt;div&gt;&lt;span style=&quot;color: #af00db&quot;&gt;&amp;nbsp; a&lt;/span&gt;                 &lt;span style=&quot;color: #0000ff&quot;&gt;form:&lt;/span&gt;&lt;span style=&quot;color: #001080&quot;&gt;Field&lt;/span&gt; ;&lt;/div&gt;&lt;div&gt;&lt;span style=&quot;color: #0000ff&quot;&gt;&amp;nbsp; form:&lt;/span&gt;&lt;span style=&quot;color: #001080&quot;&gt;fieldWidget&lt;/span&gt;  &lt;span style=&quot;color: #a31515&quot;&gt;&quot;string&quot;&lt;/span&gt; ;&lt;/div&gt;&lt;div&gt;&lt;span style=&quot;color: #0000ff&quot;&gt;&amp;nbsp; form:&lt;/span&gt;&lt;span style=&quot;color: #001080&quot;&gt;label&lt;/span&gt;        &lt;span style=&quot;color: #a31515&quot;&gt;&quot;About&quot;&lt;/span&gt;@&lt;span style=&quot;color: #267f99&quot;&gt;en&lt;/span&gt; ;&lt;/div&gt;&lt;div&gt;&lt;span style=&quot;color: #0000ff&quot;&gt;&amp;nbsp; form:&lt;/span&gt;&lt;span style=&quot;color: #001080&quot;&gt;label&lt;/span&gt;        &lt;span style=&quot;color: #a31515&quot;&gt;&quot;Over&quot;&lt;/span&gt;@&lt;span style=&quot;color: #267f99&quot;&gt;nl&lt;/span&gt; ;&lt;/div&gt;&lt;div&gt;&lt;span style=&quot;color: #0000ff&quot;&gt;&amp;nbsp; form:&lt;/span&gt;&lt;span style=&quot;color: #001080&quot;&gt;binding&lt;/span&gt;      &lt;span style=&quot;color: #0000ff&quot;&gt;schema:&lt;/span&gt;&lt;span style=&quot;color: #001080&quot;&gt;about&lt;/span&gt; ;&lt;/div&gt;&lt;div&gt;&lt;span style=&quot;color: #0000ff&quot;&gt;&amp;nbsp; form:&lt;/span&gt;&lt;span style=&quot;color: #001080&quot;&gt;order&lt;/span&gt;        &lt;span style=&quot;color: #098658&quot;&gt;0&lt;/span&gt; ;&lt;/div&gt;&lt;div&gt;&lt;span style=&quot;color: #0000ff&quot;&gt;&amp;nbsp; form:&lt;/span&gt;&lt;span style=&quot;color: #001080&quot;&gt;translatable&lt;/span&gt; &lt;span style=&quot;color: #0000ff&quot;&gt;true&lt;/span&gt; ;&lt;/div&gt;&lt;div&gt;&lt;span style=&quot;color: #0000ff&quot;&gt;&amp;nbsp; form:&lt;/span&gt;&lt;span style=&quot;color: #001080&quot;&gt;translatable&lt;/span&gt;   &lt;span style=&quot;color: #0000ff&quot;&gt;true&lt;/span&gt; ;&lt;/div&gt;&lt;div&gt;&lt;span style=&quot;color: #0000ff&quot;&gt;&amp;nbsp; form:&lt;/span&gt;&lt;span style=&quot;color: #001080&quot;&gt;container&lt;/span&gt;      &lt;span style=&quot;color: #0000ff&quot;&gt;personForm:&lt;/span&gt;&lt;span style=&quot;color: #001080&quot;&gt;images&lt;/span&gt; .&lt;/div&gt;&lt;div&gt;&lt;br&gt;&lt;/div&gt;&lt;/div&gt;&lt;/div&gt;&lt;/div&gt;&lt;/font&gt;" style="text;html=1;strokeColor=none;fillColor=none;align=left;verticalAlign=top;whiteSpace=wrap;rounded=0;" vertex="1" parent="1">
                    <mxGeometry x="1820" y="115" width="610" height="440" as="geometry"/>
                </mxCell>
                <mxCell id="107" value="&lt;font style=&quot;font-size: 20px&quot;&gt;Container form definition&lt;/font&gt;" style="text;html=1;strokeColor=none;fillColor=none;align=left;verticalAlign=middle;whiteSpace=wrap;rounded=0;" vertex="1" parent="1">
                    <mxGeometry x="1820" y="80" width="310" height="20" as="geometry"/>
                </mxCell>
            </root>
        </mxGraphModel>
    </diagram>
</mxfile>